<svg xmlns="http://www.w3.org/2000/svg" viewBox="0 0 640 520" fill="none">
  <rect width="640" height="520" rx="32" fill="url(#bg)"/>
  <circle cx="520" cy="90" r="60" fill="#99f6e4" opacity="0.45"/>
  <circle cx="100" cy="420" r="70" fill="#c7d2fe" opacity="0.45"/>
  <path d="M80 360 Q320 260 560 360" stroke="#14b8a6" stroke-width="3" stroke-dasharray="10 8" opacity="0.5"/>
  <rect x="140" y="280" width="360" height="110" rx="28" fill="url(#vehicle)"/>
  <rect x="190" y="230" width="180" height="70" rx="20" fill="#ffffff" opacity="0.95"/>
  <circle cx="210" cy="390" r="32" fill="#134e4a"/>
  <circle cx="210" cy="390" r="16" fill="#5eead4"/>
  <circle cx="430" cy="390" r="32" fill="#134e4a"/>
  <circle cx="430" cy="390" r="16" fill="#5eead4"/>
  <rect x="250" y="248" width="80" height="10" rx="5" fill="#fde68a"/>
  <rect x="120" y="120" width="200" height="90" rx="16" fill="white" opacity="0.92"/>
  <text x="140" y="152" font-family="Arial,sans-serif" font-size="14" font-weight="bold" fill="#0f766e">Pickup</text>
  <text x="140" y="178" font-family="Arial,sans-serif" font-size="12" fill="#64748b">Your location</text>
  <rect x="320" y="140" width="200" height="90" rx="16" fill="white" opacity="0.92"/>
  <text x="340" y="172" font-family="Arial,sans-serif" font-size="14" font-weight="bold" fill="#4338ca">Drop</text>
  <text x="340" y="198" font-family="Arial,sans-serif" font-size="12" fill="#64748b">Destination</text>
  <text x="320" y="470" text-anchor="middle" font-family="Arial,sans-serif" font-size="20" font-weight="bold" fill="#0f766e">Book in seconds</text>
  <defs>
    <linearGradient id="bg" x1="0" y1="0" x2="640" y2="520" gradientUnits="userSpaceOnUse">
      <stop stop-color="#f0fdfa"/>
      <stop offset="1" stop-color="#eef2ff"/>
    </linearGradient>
    <linearGradient id="vehicle" x1="140" y1="280" x2="500" y2="390" gradientUnits="userSpaceOnUse">
      <stop stop-color="#14b8a6"/>
      <stop offset="1" stop-color="#6366f1"/>
    </linearGradient>
  </defs>
</svg>
